<?xml version="1.0" encoding="UTF-8"?>
<?xml-stylesheet href="https://cdnjs.cloudflare.com/ajax/libs/font-awesome/6.7.2/css/all.min.css" type="text/css"?>
<svg aria-roledescription="timeline" role="graphics-document document" viewBox="0 0 2590 1354.9874267578125" style="max-width: 100%;" xmlns="http://www.w3.org/2000/svg" width="100%" id="graph-div" height="100%" xmlns:xlink="http://www.w3.org/1999/xlink"><style>#graph-div{font-family:"trebuchet ms",verdana,arial,sans-serif;font-size:16px;fill:#333;}#graph-div .error-icon{fill:hsl(220.5882352941, 100%, 98.3333333333%);}#graph-div .error-text{fill:rgb(8.5000000002, 5.7500000001, 0);stroke:rgb(8.5000000002, 5.7500000001, 0);}#graph-div .edge-thickness-normal{stroke-width:1px;}#graph-div .edge-thickness-thick{stroke-width:3.5px;}#graph-div .edge-pattern-solid{stroke-dasharray:0;}#graph-div .edge-thickness-invisible{stroke-width:0;fill:none;}#graph-div .edge-pattern-dashed{stroke-dasharray:3;}#graph-div .edge-pattern-dotted{stroke-dasharray:2;}#graph-div .marker{fill:#000000;stroke:#000000;}#graph-div .marker.cross{stroke:#000000;}#graph-div svg{font-family:"trebuchet ms",verdana,arial,sans-serif;font-size:16px;}#graph-div p{margin:0;}#graph-div .edge{stroke-width:3;}#graph-div .section--1 rect,#graph-div .section--1 path,#graph-div .section--1 circle,#graph-div .section--1 path{fill:#4c89ee;}#graph-div .section--1 text{fill:#000000;}#graph-div .node-icon--1{font-size:40px;color:#000000;}#graph-div .section-edge--1{stroke:#4c89ee;}#graph-div .edge-depth--1{stroke-width:17;}#graph-div .section--1 line{stroke:rgb(238.8239795918, 180.7806122448, 84.6760204081);stroke-width:3;}#graph-div .lineWrapper line{stroke:#000000;}#graph-div .disabled,#graph-div .disabled circle,#graph-div .disabled text{fill:lightgray;}#graph-div .disabled text{fill:#efefef;}#graph-div .section-0 rect,#graph-div .section-0 path,#graph-div .section-0 circle,#graph-div .section-0 path{fill:#4cab7c;}#graph-div .section-0 text{fill:#000000;}#graph-div .node-icon-0{font-size:40px;color:#000000;}#graph-div .section-edge-0{stroke:#4cab7c;}#graph-div .edge-depth-0{stroke-width:14;}#graph-div .section-0 line{stroke:rgb(218.2307692308, 172.2692307693, 195.008097166);stroke-width:3;}#graph-div .lineWrapper line{stroke:#000000;}#graph-div .disabled,#graph-div .disabled circle,#graph-div .disabled text{fill:lightgray;}#graph-div .disabled text{fill:#efefef;}#graph-div .section-1 rect,#graph-div .section-1 path,#graph-div .section-1 circle,#graph-div .section-1 path{fill:#ffa700;}#graph-div .section-1 text{fill:#000000;}#graph-div .node-icon-1{font-size:40px;color:#000000;}#graph-div .section-edge-1{stroke:#ffa700;}#graph-div .edge-depth-1{stroke-width:11;}#graph-div .section-1 line{stroke:rgb(127.5, 171.4999999999, 255);stroke-width:3;}#graph-div .lineWrapper line{stroke:#000000;}#graph-div .disabled,#graph-div .disabled circle,#graph-div .disabled text{fill:lightgray;}#graph-div .disabled text{fill:#efefef;}#graph-div .section-2 rect,#graph-div .section-2 path,#graph-div .section-2 circle,#graph-div .section-2 path{fill:hsl(70.5882352941, 100%, 68.3333333333%);}#graph-div .section-2 text{fill:#333;}#graph-div .node-icon-2{font-size:40px;color:#333;}#graph-div .section-edge-2{stroke:hsl(70.5882352941, 100%, 68.3333333333%);}#graph-div .edge-depth-2{stroke-width:8;}#graph-div .section-2 line{stroke:rgb(28.5, 0, 161.5000000002);stroke-width:3;}#graph-div .lineWrapper line{stroke:#333;}#graph-div .disabled,#graph-div .disabled circle,#graph-div .disabled text{fill:lightgray;}#graph-div .disabled text{fill:#efefef;}#graph-div .section-3 rect,#graph-div .section-3 path,#graph-div .section-3 circle,#graph-div .section-3 path{fill:hsl(100.5882352941, 100%, 68.3333333333%);}#graph-div .section-3 text{fill:#333;}#graph-div .node-icon-3{font-size:40px;color:#333;}#graph-div .section-edge-3{stroke:hsl(100.5882352941, 100%, 68.3333333333%);}#graph-div .edge-depth-3{stroke-width:5;}#graph-div .section-3 line{stroke:rgb(109.2500000001, 0, 161.5000000002);stroke-width:3;}#graph-div .lineWrapper line{stroke:#333;}#graph-div .disabled,#graph-div .disabled circle,#graph-div .disabled text{fill:lightgray;}#graph-div .disabled text{fill:#efefef;}#graph-div .section-4 rect,#graph-div .section-4 path,#graph-div .section-4 circle,#graph-div .section-4 path{fill:hsl(130.5882352941, 100%, 68.3333333333%);}#graph-div .section-4 text{fill:#333;}#graph-div .node-icon-4{font-size:40px;color:#333;}#graph-div .section-edge-4{stroke:hsl(130.5882352941, 100%, 68.3333333333%);}#graph-div .edge-depth-4{stroke-width:2;}#graph-div .section-4 line{stroke:rgb(161.5000000002, 0, 133.0000000002);stroke-width:3;}#graph-div .lineWrapper line{stroke:#333;}#graph-div .disabled,#graph-div .disabled circle,#graph-div .disabled text{fill:lightgray;}#graph-div .disabled text{fill:#efefef;}#graph-div .section-5 rect,#graph-div .section-5 path,#graph-div .section-5 circle,#graph-div .section-5 path{fill:hsl(160.5882352941, 100%, 68.3333333333%);}#graph-div .section-5 text{fill:#333;}#graph-div .node-icon-5{font-size:40px;color:#333;}#graph-div .section-edge-5{stroke:hsl(160.5882352941, 100%, 68.3333333333%);}#graph-div .edge-depth-5{stroke-width:-1;}#graph-div .section-5 line{stroke:rgb(161.5000000002, 0, 52.2500000001);stroke-width:3;}#graph-div .lineWrapper line{stroke:#333;}#graph-div .disabled,#graph-div .disabled circle,#graph-div .disabled text{fill:lightgray;}#graph-div .disabled text{fill:#efefef;}#graph-div .section-6 rect,#graph-div .section-6 path,#graph-div .section-6 circle,#graph-div .section-6 path{fill:hsl(190.5882352941, 100%, 68.3333333333%);}#graph-div .section-6 text{fill:#333;}#graph-div .node-icon-6{font-size:40px;color:#333;}#graph-div .section-edge-6{stroke:hsl(190.5882352941, 100%, 68.3333333333%);}#graph-div .edge-depth-6{stroke-width:-4;}#graph-div .section-6 line{stroke:rgb(161.5000000002, 28.5, 0);stroke-width:3;}#graph-div .lineWrapper line{stroke:#333;}#graph-div .disabled,#graph-div .disabled circle,#graph-div .disabled text{fill:lightgray;}#graph-div .disabled text{fill:#efefef;}#graph-div .section-7 rect,#graph-div .section-7 path,#graph-div .section-7 circle,#graph-div .section-7 path{fill:hsl(250.5882352941, 100%, 75%);}#graph-div .section-7 text{fill:#333;}#graph-div .node-icon-7{font-size:40px;color:#333;}#graph-div .section-edge-7{stroke:hsl(250.5882352941, 100%, 75%);}#graph-div .edge-depth-7{stroke-width:-7;}#graph-div .section-7 line{stroke:rgb(105, 127.5, 0);stroke-width:3;}#graph-div .lineWrapper line{stroke:#333;}#graph-div .disabled,#graph-div .disabled circle,#graph-div .disabled text{fill:lightgray;}#graph-div .disabled text{fill:#efefef;}#graph-div .section-8 rect,#graph-div .section-8 path,#graph-div .section-8 circle,#graph-div .section-8 path{fill:hsl(310.5882352941, 100%, 68.3333333333%);}#graph-div .section-8 text{fill:#333;}#graph-div .node-icon-8{font-size:40px;color:#333;}#graph-div .section-edge-8{stroke:hsl(310.5882352941, 100%, 68.3333333333%);}#graph-div .edge-depth-8{stroke-width:-10;}#graph-div .section-8 line{stroke:rgb(0, 161.5000000002, 28.5);stroke-width:3;}#graph-div .lineWrapper line{stroke:#333;}#graph-div .disabled,#graph-div .disabled circle,#graph-div .disabled text{fill:lightgray;}#graph-div .disabled text{fill:#efefef;}#graph-div .section-9 rect,#graph-div .section-9 path,#graph-div .section-9 circle,#graph-div .section-9 path{fill:hsl(340.5882352941, 100%, 68.3333333333%);}#graph-div .section-9 text{fill:#333;}#graph-div .node-icon-9{font-size:40px;color:#333;}#graph-div .section-edge-9{stroke:hsl(340.5882352941, 100%, 68.3333333333%);}#graph-div .edge-depth-9{stroke-width:-13;}#graph-div .section-9 line{stroke:rgb(0, 161.5000000002, 109.2500000001);stroke-width:3;}#graph-div .lineWrapper line{stroke:#333;}#graph-div .disabled,#graph-div .disabled circle,#graph-div .disabled text{fill:lightgray;}#graph-div .disabled text{fill:#efefef;}#graph-div .section-10 rect,#graph-div .section-10 path,#graph-div .section-10 circle,#graph-div .section-10 path{fill:hsl(10.5882352941, 100%, 68.3333333333%);}#graph-div .section-10 text{fill:#333;}#graph-div .node-icon-10{font-size:40px;color:#333;}#graph-div .section-edge-10{stroke:hsl(10.5882352941, 100%, 68.3333333333%);}#graph-div .edge-depth-10{stroke-width:-16;}#graph-div .section-10 line{stroke:rgb(0, 133.0000000002, 161.5000000002);stroke-width:3;}#graph-div .lineWrapper line{stroke:#333;}#graph-div .disabled,#graph-div .disabled circle,#graph-div .disabled text{fill:lightgray;}#graph-div .disabled text{fill:#efefef;}#graph-div .section-root rect,#graph-div .section-root path,#graph-div .section-root circle{fill:hsl(40.5882352941, 100%, 68.3333333333%);}#graph-div .section-root text{fill:#333;}#graph-div .icon-container{height:100%;display:flex;justify-content:center;align-items:center;}#graph-div .edge{fill:none;}#graph-div .eventWrapper{filter:brightness(120%);}#graph-div .svg{background-color:white;}#graph-div :root{--mermaid-font-family:"trebuchet ms",verdana,arial,sans-serif;}</style><g></g><g></g><defs><marker orient="auto" markerHeight="4" markerWidth="6" refY="2" refX="5" id="arrowhead"><path d="M 0,0 V 4 L6,2 Z"></path></marker></defs><g transform="translate(100, 50)"><g class="timeline-node section--1"><g><path d="M0 113.61562042236328 v-108.61562042236328 q0,-5 5,-5 h180 q5,0 5,5 v113.61562042236328 H0 Z" class="node-bkg node-undefined" id="node-undefined"></path><line y2="118.61562042236328" x2="190" y1="118.61562042236328" x1="0" class="node-line--1"></line></g><g transform="translate(95, 10)"><text text-anchor="middle" dominant-baseline="middle" alignment-baseline="middle" dy="1em"><tspan dy="1em" x="0">Pre-Disruption</tspan></text></g></g></g><g transform="translate(100, 218.6156204223633)" class="taskWrapper"><g class="timeline-node section--1"><g><path d="M0 60.815625 v-55.815625 q0,-5 5,-5 h180 q5,0 5,5 v60.815625 H0 Z" class="node-bkg node-undefined" id="node-undefined"></path><line y2="65.815625" x2="190" y1="65.815625" x1="0" class="node-line--1"></line></g><g transform="translate(95, 10)"><text text-anchor="middle" dominant-baseline="middle" alignment-baseline="middle" dy="1em"><tspan dy="1em" x="0">19th   and   20th</tspan><tspan dy="1.1em" x="0">Century</tspan></text></g></g></g><g class="lineWrapper"><line stroke-dasharray="5,5" marker-end="url(#arrowhead)" stroke="black" stroke-width="2" y2="1304.9874588012694" x2="195" y1="284.4312454223633" x1="195"></line></g><g transform="translate(100, 418.6156204223633)" class="eventWrapper"><g class="timeline-node section--1"><g><path d="M0 58.41562347412109 v-53.41562347412109 q0,-5 5,-5 h180 q5,0 5,5 v58.41562347412109 H0 Z" class="node-bkg node-undefined" id="node-undefined"></path><line y2="63.41562347412109" x2="190" y1="63.41562347412109" x1="0" class="node-line--1"></line></g><g transform="translate(95, 10)"><text text-anchor="middle" dominant-baseline="middle" alignment-baseline="middle" dy="1em"><tspan dy="1em" x="0">1855-1947   -</tspan><tspan dy="1.1em" x="0">Incumbents   founded</tspan></text></g></g></g><g transform="translate(100, 492.0312438964844)" class="eventWrapper"><g class="timeline-node section--1"><g><path d="M0 93.61562042236328 v-88.61562042236328 q0,-5 5,-5 h180 q5,0 5,5 v93.61562042236328 H0 Z" class="node-bkg node-undefined" id="node-undefined"></path><line y2="98.61562042236328" x2="190" y1="98.61562042236328" x1="0" class="node-line--1"></line></g><g transform="translate(95, 10)"><text text-anchor="middle" dominant-baseline="middle" alignment-baseline="middle" dy="1em"><tspan dy="1em" x="0">1960s-1980s   -</tspan><tspan dy="1.1em" x="0">Acquisitions   begin</tspan><tspan dy="1.1em" x="0">and   vertical</tspan><tspan dy="1.1em" x="0">integration   starts</tspan></text></g></g></g><g transform="translate(100, 600.6468643188476)" class="eventWrapper"><g class="timeline-node section--1"><g><path d="M0 128.81561737060548 v-123.81561737060548 q0,-5 5,-5 h180 q5,0 5,5 v128.81561737060548 H0 Z" class="node-bkg node-undefined" id="node-undefined"></path><line y2="133.81561737060548" x2="190" y1="133.81561737060548" x1="0" class="node-line--1"></line></g><g transform="translate(95, 10)"><text text-anchor="middle" dominant-baseline="middle" alignment-baseline="middle" dy="1em"><tspan dy="1em" x="0">1980s-Present   -</tspan><tspan dy="1.1em" x="0">Massive</tspan><tspan dy="1.1em" x="0">consolidations</tspan><tspan dy="1.1em" x="0">across   nearly   all</tspan><tspan dy="1.1em" x="0">sectors   of   the   meat</tspan><tspan dy="1.1em" x="0">market</tspan></text></g></g></g><g transform="translate(300, 50)"><g class="timeline-node section-0"><g><path d="M0 113.61562042236328 v-108.61562042236328 q0,-5 5,-5 h580 q5,0 5,5 v113.61562042236328 H0 Z" class="node-bkg node-undefined" id="node-undefined"></path><line y2="118.61562042236328" x2="590" y1="118.61562042236328" x1="0" class="node-line-0"></line></g><g transform="translate(295, 10)"><text text-anchor="middle" dominant-baseline="middle" alignment-baseline="middle" dy="1em"><tspan dy="1em" x="0">Market   Disruption   -   Challengers   Start   Funding   and   First   Products</tspan></text></g></g></g><g transform="translate(300, 218.6156204223633)" class="taskWrapper"><g class="timeline-node section-0"><g><path d="M0 60.815625 v-55.815625 q0,-5 5,-5 h180 q5,0 5,5 v60.815625 H0 Z" class="node-bkg node-undefined" id="node-undefined"></path><line y2="65.815625" x2="190" y1="65.815625" x1="0" class="node-line-0"></line></g><g transform="translate(95, 10)"><text text-anchor="middle" dominant-baseline="middle" alignment-baseline="middle" dy="1em"><tspan dy="1em" x="0">2009-2011</tspan></text></g></g></g><g class="lineWrapper"><line stroke-dasharray="5,5" marker-end="url(#arrowhead)" stroke="black" stroke-width="2" y2="1304.9874588012694" x2="395" y1="284.4312454223633" x1="395"></line></g><g transform="translate(300, 418.6156204223633)" class="eventWrapper"><g class="timeline-node section-0"><g><path d="M0 58.41562347412109 v-53.41562347412109 q0,-5 5,-5 h180 q5,0 5,5 v58.41562347412109 H0 Z" class="node-bkg node-undefined" id="node-undefined"></path><line y2="63.41562347412109" x2="190" y1="63.41562347412109" x1="0" class="node-line-0"></line></g><g transform="translate(95, 10)"><text text-anchor="middle" dominant-baseline="middle" alignment-baseline="middle" dy="1em"><tspan dy="1em" x="0">2009   -   Beyond   Meat</tspan><tspan dy="1.1em" x="0">Founded</tspan></text></g></g></g><g transform="translate(300, 492.0312438964844)" class="eventWrapper"><g class="timeline-node section-0"><g><path d="M0 58.41562347412109 v-53.41562347412109 q0,-5 5,-5 h180 q5,0 5,5 v58.41562347412109 H0 Z" class="node-bkg node-undefined" id="node-undefined"></path><line y2="63.41562347412109" x2="190" y1="63.41562347412109" x1="0" class="node-line-0"></line></g><g transform="translate(95, 10)"><text text-anchor="middle" dominant-baseline="middle" alignment-baseline="middle" dy="1em"><tspan dy="1em" x="0">2011   -   Impossible</tspan><tspan dy="1.1em" x="0">Foods   Founded</tspan></text></g></g></g><g transform="translate(500, 218.6156204223633)" class="taskWrapper"><g class="timeline-node section-0"><g><path d="M0 60.815625 v-55.815625 q0,-5 5,-5 h180 q5,0 5,5 v60.815625 H0 Z" class="node-bkg node-undefined" id="node-undefined"></path><line y2="65.815625" x2="190" y1="65.815625" x1="0" class="node-line-0"></line></g><g transform="translate(95, 10)"><text text-anchor="middle" dominant-baseline="middle" alignment-baseline="middle" dy="1em"><tspan dy="1em" x="0">2012-2015</tspan></text></g></g></g><g class="lineWrapper"><line stroke-dasharray="5,5" marker-end="url(#arrowhead)" stroke="black" stroke-width="2" y2="1304.9874588012694" x2="595" y1="284.4312454223633" x1="595"></line></g><g transform="translate(500, 418.6156204223633)" class="eventWrapper"><g class="timeline-node section-0"><g><path d="M0 93.61562042236328 v-88.61562042236328 q0,-5 5,-5 h180 q5,0 5,5 v93.61562042236328 H0 Z" class="node-bkg node-undefined" id="node-undefined"></path><line y2="98.61562042236328" x2="190" y1="98.61562042236328" x1="0" class="node-line-0"></line></g><g transform="translate(95, 10)"><text text-anchor="middle" dominant-baseline="middle" alignment-baseline="middle" dy="1em"><tspan dy="1em" x="0">2012   -   Beyond   Meat</tspan><tspan dy="1.1em" x="0">Releases   First</tspan><tspan dy="1.1em" x="0">Product   (chicken</tspan><tspan dy="1.1em" x="0">strips)</tspan></text></g></g></g><g transform="translate(500, 527.2312408447266)" class="eventWrapper"><g class="timeline-node section-0"><g><path d="M0 93.61562042236328 v-88.61562042236328 q0,-5 5,-5 h180 q5,0 5,5 v93.61562042236328 H0 Z" class="node-bkg node-undefined" id="node-undefined"></path><line y2="98.61562042236328" x2="190" y1="98.61562042236328" x1="0" class="node-line-0"></line></g><g transform="translate(95, 10)"><text text-anchor="middle" dominant-baseline="middle" alignment-baseline="middle" dy="1em"><tspan dy="1em" x="0">2013   -   PETA   names</tspan><tspan dy="1.1em" x="0">Beyond   Meat   its</tspan><tspan dy="1.1em" x="0">2013   Company   of</tspan><tspan dy="1.1em" x="0">the   Year</tspan></text></g></g></g><g transform="translate(500, 635.8468612670898)" class="eventWrapper"><g class="timeline-node section-0"><g><path d="M0 76.01562194824218 v-71.01562194824218 q0,-5 5,-5 h180 q5,0 5,5 v76.01562194824218 H0 Z" class="node-bkg node-undefined" id="node-undefined"></path><line y2="81.01562194824218" x2="190" y1="81.01562194824218" x1="0" class="node-line-0"></line></g><g transform="translate(95, 10)"><text text-anchor="middle" dominant-baseline="middle" alignment-baseline="middle" dy="1em"><tspan dy="1em" x="0">2015   Feb   -   Beyond</tspan><tspan dy="1.1em" x="0">Releases   Beyond</tspan><tspan dy="1.1em" x="0">Burger</tspan></text></g></g></g><g transform="translate(700, 218.6156204223633)" class="taskWrapper"><g class="timeline-node section-0"><g><path d="M0 60.815625 v-55.815625 q0,-5 5,-5 h180 q5,0 5,5 v60.815625 H0 Z" class="node-bkg node-undefined" id="node-undefined"></path><line y2="65.815625" x2="190" y1="65.815625" x1="0" class="node-line-0"></line></g><g transform="translate(95, 10)"><text text-anchor="middle" dominant-baseline="middle" alignment-baseline="middle" dy="1em"><tspan dy="1em" x="0">2016</tspan></text></g></g></g><g class="lineWrapper"><line stroke-dasharray="5,5" marker-end="url(#arrowhead)" stroke="black" stroke-width="2" y2="1304.9874588012694" x2="795" y1="284.4312454223633" x1="795"></line></g><g transform="translate(700, 418.6156204223633)" class="eventWrapper"><g class="timeline-node section-0"><g><path d="M0 76.01562194824218 v-71.01562194824218 q0,-5 5,-5 h180 q5,0 5,5 v76.01562194824218 H0 Z" class="node-bkg node-undefined" id="node-undefined"></path><line y2="81.01562194824218" x2="190" y1="81.01562194824218" x1="0" class="node-line-0"></line></g><g transform="translate(95, 10)"><text text-anchor="middle" dominant-baseline="middle" alignment-baseline="middle" dy="1em"><tspan dy="1em" x="0">Feb   Good   Food</tspan><tspan dy="1.1em" x="0">Institute   (GFI)</tspan><tspan dy="1.1em" x="0">founded</tspan></text></g></g></g><g transform="translate(700, 509.6312423706055)" class="eventWrapper"><g class="timeline-node section-0"><g><path d="M0 76.01562194824218 v-71.01562194824218 q0,-5 5,-5 h180 q5,0 5,5 v76.01562194824218 H0 Z" class="node-bkg node-undefined" id="node-undefined"></path><line y2="81.01562194824218" x2="190" y1="81.01562194824218" x1="0" class="node-line-0"></line></g><g transform="translate(95, 10)"><text text-anchor="middle" dominant-baseline="middle" alignment-baseline="middle" dy="1em"><tspan dy="1em" x="0">Jul   -   Impossible</tspan><tspan dy="1.1em" x="0">Releases   First</tspan><tspan dy="1.1em" x="0">Product   (burger)</tspan></text></g></g></g><g transform="translate(700, 600.6468643188476)" class="eventWrapper"><g class="timeline-node section-0"><g><path d="M0 58.41562347412109 v-53.41562347412109 q0,-5 5,-5 h180 q5,0 5,5 v58.41562347412109 H0 Z" class="node-bkg node-undefined" id="node-undefined"></path><line y2="63.41562347412109" x2="190" y1="63.41562347412109" x1="0" class="node-line-0"></line></g><g transform="translate(95, 10)"><text text-anchor="middle" dominant-baseline="middle" alignment-baseline="middle" dy="1em"><tspan dy="1em" x="0">Oct   -   Tyson   Invests</tspan><tspan dy="1.1em" x="0">in   Beyond   Meat</tspan></text></g></g></g><g transform="translate(900, 50)"><g class="timeline-node section-1"><g><path d="M0 113.61562042236328 v-108.61562042236328 q0,-5 5,-5 h1580 q5,0 5,5 v113.61562042236328 H0 Z" class="node-bkg node-undefined" id="node-undefined"></path><line y2="118.61562042236328" x2="1590" y1="118.61562042236328" x1="0" class="node-line-1"></line></g><g transform="translate(795, 10)"><text text-anchor="middle" dominant-baseline="middle" alignment-baseline="middle" dy="1em"><tspan dy="1em" x="0">Containment   and   Realignment</tspan></text></g></g></g><g transform="translate(900, 218.6156204223633)" class="taskWrapper"><g class="timeline-node section-1"><g><path d="M0 60.815625 v-55.815625 q0,-5 5,-5 h180 q5,0 5,5 v60.815625 H0 Z" class="node-bkg node-undefined" id="node-undefined"></path><line y2="65.815625" x2="190" y1="65.815625" x1="0" class="node-line-1"></line></g><g transform="translate(95, 10)"><text text-anchor="middle" dominant-baseline="middle" alignment-baseline="middle" dy="1em"><tspan dy="1em" x="0">2017</tspan></text></g></g></g><g class="lineWrapper"><line stroke-dasharray="5,5" marker-end="url(#arrowhead)" stroke="black" stroke-width="2" y2="1304.9874588012694" x2="995" y1="284.4312454223633" x1="995"></line></g><g transform="translate(900, 418.6156204223633)" class="eventWrapper"><g class="timeline-node section-1"><g><path d="M0 76.01562194824218 v-71.01562194824218 q0,-5 5,-5 h180 q5,0 5,5 v76.01562194824218 H0 Z" class="node-bkg node-undefined" id="node-undefined"></path><line y2="81.01562194824218" x2="190" y1="81.01562194824218" x1="0" class="node-line-1"></line></g><g transform="translate(95, 10)"><text text-anchor="middle" dominant-baseline="middle" alignment-baseline="middle" dy="1em"><tspan dy="1em" x="0">Aug   -   Cargill   invests</tspan><tspan dy="1.1em" x="0">in   cultured   meat</tspan><tspan dy="1.1em" x="0">company</tspan></text></g></g></g><g transform="translate(1100, 218.6156204223633)" class="taskWrapper"><g class="timeline-node section-1"><g><path d="M0 60.815625 v-55.815625 q0,-5 5,-5 h180 q5,0 5,5 v60.815625 H0 Z" class="node-bkg node-undefined" id="node-undefined"></path><line y2="65.815625" x2="190" y1="65.815625" x1="0" class="node-line-1"></line></g><g transform="translate(95, 10)"><text text-anchor="middle" dominant-baseline="middle" alignment-baseline="middle" dy="1em"><tspan dy="1em" x="0">2018</tspan></text></g></g></g><g class="lineWrapper"><line stroke-dasharray="5,5" marker-end="url(#arrowhead)" stroke="black" stroke-width="2" y2="1304.9874588012694" x2="1195" y1="284.4312454223633" x1="1195"></line></g><g transform="translate(1100, 418.6156204223633)" class="eventWrapper"><g class="timeline-node section-1"><g><path d="M0 76.01562194824218 v-71.01562194824218 q0,-5 5,-5 h180 q5,0 5,5 v76.01562194824218 H0 Z" class="node-bkg node-undefined" id="node-undefined"></path><line y2="81.01562194824218" x2="190" y1="81.01562194824218" x1="0" class="node-line-1"></line></g><g transform="translate(95, 10)"><text text-anchor="middle" dominant-baseline="middle" alignment-baseline="middle" dy="1em"><tspan dy="1em" x="0">Jan   -   Tyson   invests</tspan><tspan dy="1.1em" x="0">in   cultured   meat</tspan><tspan dy="1.1em" x="0">company</tspan></text></g></g></g><g transform="translate(1100, 509.6312423706055)" class="eventWrapper"><g class="timeline-node section-1"><g><path d="M0 111.21561889648437 v-106.21561889648437 q0,-5 5,-5 h180 q5,0 5,5 v111.21561889648437 H0 Z" class="node-bkg node-undefined" id="node-undefined"></path><line y2="116.21561889648437" x2="190" y1="116.21561889648437" x1="0" class="node-line-1"></line></g><g transform="translate(95, 10)"><text text-anchor="middle" dominant-baseline="middle" alignment-baseline="middle" dy="1em"><tspan dy="1em" x="0">Feb   USCA   petitions</tspan><tspan dy="1.1em" x="0">USDA   to   prevent</tspan><tspan dy="1.1em" x="0">labeling   alternative</tspan><tspan dy="1.1em" x="0">meat   products   as</tspan><tspan dy="1.1em" x="0">"meat"</tspan></text></g></g></g><g transform="translate(1100, 635.8468612670898)" class="eventWrapper"><g class="timeline-node section-1"><g><path d="M0 76.01562194824218 v-71.01562194824218 q0,-5 5,-5 h180 q5,0 5,5 v76.01562194824218 H0 Z" class="node-bkg node-undefined" id="node-undefined"></path><line y2="81.01562194824218" x2="190" y1="81.01562194824218" x1="0" class="node-line-1"></line></g><g transform="translate(95, 10)"><text text-anchor="middle" dominant-baseline="middle" alignment-baseline="middle" dy="1em"><tspan dy="1em" x="0">Mar   -   CCF   begins</tspan><tspan dy="1.1em" x="0">blog   posts   about</tspan><tspan dy="1.1em" x="0">plant-based   meat</tspan></text></g></g></g><g transform="translate(1100, 726.862483215332)" class="eventWrapper"><g class="timeline-node section-1"><g><path d="M0 128.81561737060548 v-123.81561737060548 q0,-5 5,-5 h180 q5,0 5,5 v128.81561737060548 H0 Z" class="node-bkg node-undefined" id="node-undefined"></path><line y2="133.81561737060548" x2="190" y1="133.81561737060548" x1="0" class="node-line-1"></line></g><g transform="translate(95, 10)"><text text-anchor="middle" dominant-baseline="middle" alignment-baseline="middle" dy="1em"><tspan dy="1em" x="0">Apr   -   NCBA</tspan><tspan dy="1.1em" x="0">comments   on</tspan><tspan dy="1.1em" x="0">USCA's   petition   to</tspan><tspan dy="1.1em" x="0">USDA   about</tspan><tspan dy="1.1em" x="0">alternative   meat</tspan><tspan dy="1.1em" x="0">labeling   regulations</tspan></text></g></g></g><g transform="translate(1100, 870.6781005859375)" class="eventWrapper"><g class="timeline-node section-1"><g><path d="M0 111.21561889648437 v-106.21561889648437 q0,-5 5,-5 h180 q5,0 5,5 v111.21561889648437 H0 Z" class="node-bkg node-undefined" id="node-undefined"></path><line y2="116.21561889648437" x2="190" y1="116.21561889648437" x1="0" class="node-line-1"></line></g><g transform="translate(95, 10)"><text text-anchor="middle" dominant-baseline="middle" alignment-baseline="middle" dy="1em"><tspan dy="1em" x="0">Oct   -   Conagra</tspan><tspan dy="1.1em" x="0">acquires   parent</tspan><tspan dy="1.1em" x="0">company   of</tspan><tspan dy="1.1em" x="0">plant-based   meat</tspan><tspan dy="1.1em" x="0">company   Gardein</tspan></text></g></g></g><g transform="translate(1300, 218.6156204223633)" class="taskWrapper"><g class="timeline-node section-1"><g><path d="M0 60.815625 v-55.815625 q0,-5 5,-5 h180 q5,0 5,5 v60.815625 H0 Z" class="node-bkg node-undefined" id="node-undefined"></path><line y2="65.815625" x2="190" y1="65.815625" x1="0" class="node-line-1"></line></g><g transform="translate(95, 10)"><text text-anchor="middle" dominant-baseline="middle" alignment-baseline="middle" dy="1em"><tspan dy="1em" x="0">2019</tspan></text></g></g></g><g class="lineWrapper"><line stroke-dasharray="5,5" marker-end="url(#arrowhead)" stroke="black" stroke-width="2" y2="1304.9874588012694" x2="1395" y1="284.4312454223633" x1="1395"></line></g><g transform="translate(1300, 418.6156204223633)" class="eventWrapper"><g class="timeline-node section-1"><g><path d="M0 58.41562347412109 v-53.41562347412109 q0,-5 5,-5 h180 q5,0 5,5 v58.41562347412109 H0 Z" class="node-bkg node-undefined" id="node-undefined"></path><line y2="63.41562347412109" x2="190" y1="63.41562347412109" x1="0" class="node-line-1"></line></g><g transform="translate(95, 10)"><text text-anchor="middle" dominant-baseline="middle" alignment-baseline="middle" dy="1em"><tspan dy="1em" x="0">Apr   -   Beyond   Meat's</tspan><tspan dy="1.1em" x="0">IPO</tspan></text></g></g></g><g transform="translate(1300, 492.0312438964844)" class="eventWrapper"><g class="timeline-node section-1"><g><path d="M0 76.01562194824218 v-71.01562194824218 q0,-5 5,-5 h180 q5,0 5,5 v76.01562194824218 H0 Z" class="node-bkg node-undefined" id="node-undefined"></path><line y2="81.01562194824218" x2="190" y1="81.01562194824218" x1="0" class="node-line-1"></line></g><g transform="translate(95, 10)"><text text-anchor="middle" dominant-baseline="middle" alignment-baseline="middle" dy="1em"><tspan dy="1em" x="0">Jun   -   Tyson   releases</tspan><tspan dy="1.1em" x="0">their   first   plant-based</tspan><tspan dy="1.1em" x="0">meat   product</tspan></text></g></g></g><g transform="translate(1300, 583.0468658447265)" class="eventWrapper"><g class="timeline-node section-1"><g><path d="M0 93.61562042236328 v-88.61562042236328 q0,-5 5,-5 h180 q5,0 5,5 v93.61562042236328 H0 Z" class="node-bkg node-undefined" id="node-undefined"></path><line y2="98.61562042236328" x2="190" y1="98.61562042236328" x1="0" class="node-line-1"></line></g><g transform="translate(95, 10)"><text text-anchor="middle" dominant-baseline="middle" alignment-baseline="middle" dy="1em"><tspan dy="1em" x="0">Jun   -   Perdue</tspan><tspan dy="1.1em" x="0">announces   first</tspan><tspan dy="1.1em" x="0">plant-based   meat</tspan><tspan dy="1.1em" x="0">product</tspan></text></g></g></g><g transform="translate(1300, 691.6624862670898)" class="eventWrapper"><g class="timeline-node section-1"><g><path d="M0 76.01562194824218 v-71.01562194824218 q0,-5 5,-5 h180 q5,0 5,5 v76.01562194824218 H0 Z" class="node-bkg node-undefined" id="node-undefined"></path><line y2="81.01562194824218" x2="190" y1="81.01562194824218" x1="0" class="node-line-1"></line></g><g transform="translate(95, 10)"><text text-anchor="middle" dominant-baseline="middle" alignment-baseline="middle" dy="1em"><tspan dy="1em" x="0">Jul   -   Beyond</tspan><tspan dy="1.1em" x="0">reaches   max</tspan><tspan dy="1.1em" x="0">valuation</tspan></text></g></g></g><g transform="translate(1300, 782.6781082153319)" class="eventWrapper"><g class="timeline-node section-1"><g><path d="M0 93.61562042236328 v-88.61562042236328 q0,-5 5,-5 h180 q5,0 5,5 v93.61562042236328 H0 Z" class="node-bkg node-undefined" id="node-undefined"></path><line y2="98.61562042236328" x2="190" y1="98.61562042236328" x1="0" class="node-line-1"></line></g><g transform="translate(95, 10)"><text text-anchor="middle" dominant-baseline="middle" alignment-baseline="middle" dy="1em"><tspan dy="1em" x="0">Aug   -   Impossible</tspan><tspan dy="1.1em" x="0">Whopper   available</tspan><tspan dy="1.1em" x="0">across   all   US   Burger</tspan><tspan dy="1.1em" x="0">King   -</tspan></text></g></g></g><g transform="translate(1300, 891.2937286376952)" class="eventWrapper"><g class="timeline-node section-1"><g><path d="M0 93.61562042236328 v-88.61562042236328 q0,-5 5,-5 h180 q5,0 5,5 v93.61562042236328 H0 Z" class="node-bkg node-undefined" id="node-undefined"></path><line y2="98.61562042236328" x2="190" y1="98.61562042236328" x1="0" class="node-line-1"></line></g><g transform="translate(95, 10)"><text text-anchor="middle" dominant-baseline="middle" alignment-baseline="middle" dy="1em"><tspan dy="1em" x="0">Sep   -   Purdue</tspan><tspan dy="1.1em" x="0">launches</tspan><tspan dy="1.1em" x="0">plant-based   meat</tspan><tspan dy="1.1em" x="0">products</tspan></text></g></g></g><g transform="translate(1300, 999.9093490600584)" class="eventWrapper"><g class="timeline-node section-1"><g><path d="M0 93.61562042236328 v-88.61562042236328 q0,-5 5,-5 h180 q5,0 5,5 v93.61562042236328 H0 Z" class="node-bkg node-undefined" id="node-undefined"></path><line y2="98.61562042236328" x2="190" y1="98.61562042236328" x1="0" class="node-line-1"></line></g><g transform="translate(95, 10)"><text text-anchor="middle" dominant-baseline="middle" alignment-baseline="middle" dy="1em"><tspan dy="1em" x="0">Sep   -   Hormel</tspan><tspan dy="1.1em" x="0">launches</tspan><tspan dy="1.1em" x="0">plant-based   meat</tspan><tspan dy="1.1em" x="0">products</tspan></text></g></g></g><g transform="translate(1300, 1108.5249694824217)" class="eventWrapper"><g class="timeline-node section-1"><g><path d="M0 93.61562042236328 v-88.61562042236328 q0,-5 5,-5 h180 q5,0 5,5 v93.61562042236328 H0 Z" class="node-bkg node-undefined" id="node-undefined"></path><line y2="98.61562042236328" x2="190" y1="98.61562042236328" x1="0" class="node-line-1"></line></g><g transform="translate(95, 10)"><text text-anchor="middle" dominant-baseline="middle" alignment-baseline="middle" dy="1em"><tspan dy="1em" x="0">Sep   -   Smithfield</tspan><tspan dy="1.1em" x="0">Foods   releases   their</tspan><tspan dy="1.1em" x="0">first   plant-based</tspan><tspan dy="1.1em" x="0">meat   products</tspan></text></g></g></g><g transform="translate(1300, 1217.140589904785)" class="eventWrapper"><g class="timeline-node section-1"><g><path d="M0 58.41562347412109 v-53.41562347412109 q0,-5 5,-5 h180 q5,0 5,5 v58.41562347412109 H0 Z" class="node-bkg node-undefined" id="node-undefined"></path><line y2="63.41562347412109" x2="190" y1="63.41562347412109" x1="0" class="node-line-1"></line></g><g transform="translate(95, 10)"><text text-anchor="middle" dominant-baseline="middle" alignment-baseline="middle" dy="1em"><tspan dy="1em" x="0">Oct   -   Tyson   Sells</tspan><tspan dy="1.1em" x="0">Beyond   Meat   Stake</tspan></text></g></g></g><g transform="translate(1500, 218.6156204223633)" class="taskWrapper"><g class="timeline-node section-1"><g><path d="M0 60.815625 v-55.815625 q0,-5 5,-5 h180 q5,0 5,5 v60.815625 H0 Z" class="node-bkg node-undefined" id="node-undefined"></path><line y2="65.815625" x2="190" y1="65.815625" x1="0" class="node-line-1"></line></g><g transform="translate(95, 10)"><text text-anchor="middle" dominant-baseline="middle" alignment-baseline="middle" dy="1em"><tspan dy="1em" x="0">2020</tspan></text></g></g></g><g class="lineWrapper"><line stroke-dasharray="5,5" marker-end="url(#arrowhead)" stroke="black" stroke-width="2" y2="1304.9874588012694" x2="1595" y1="284.4312454223633" x1="1595"></line></g><g transform="translate(1500, 418.6156204223633)" class="eventWrapper"><g class="timeline-node section-1"><g><path d="M0 76.01562194824218 v-71.01562194824218 q0,-5 5,-5 h180 q5,0 5,5 v76.01562194824218 H0 Z" class="node-bkg node-undefined" id="node-undefined"></path><line y2="81.01562194824218" x2="190" y1="81.01562194824218" x1="0" class="node-line-1"></line></g><g transform="translate(95, 10)"><text text-anchor="middle" dominant-baseline="middle" alignment-baseline="middle" dy="1em"><tspan dy="1em" x="0">Jan   -   CCF   Releases</tspan><tspan dy="1.1em" x="0">Synthetic   Meat</tspan><tspan dy="1.1em" x="0">"Spelling   Bee"   Ads</tspan></text></g></g></g><g transform="translate(1500, 509.6312423706055)" class="eventWrapper"><g class="timeline-node section-1"><g><path d="M0 76.01562194824218 v-71.01562194824218 q0,-5 5,-5 h180 q5,0 5,5 v76.01562194824218 H0 Z" class="node-bkg node-undefined" id="node-undefined"></path><line y2="81.01562194824218" x2="190" y1="81.01562194824218" x1="0" class="node-line-1"></line></g><g transform="translate(95, 10)"><text text-anchor="middle" dominant-baseline="middle" alignment-baseline="middle" dy="1em"><tspan dy="1em" x="0">Jan   Sysco   releases</tspan><tspan dy="1.1em" x="0">first   plant-based</tspan><tspan dy="1.1em" x="0">meat   product</tspan></text></g></g></g><g transform="translate(1500, 600.6468643188476)" class="eventWrapper"><g class="timeline-node section-1"><g><path d="M0 93.61562042236328 v-88.61562042236328 q0,-5 5,-5 h180 q5,0 5,5 v93.61562042236328 H0 Z" class="node-bkg node-undefined" id="node-undefined"></path><line y2="98.61562042236328" x2="190" y1="98.61562042236328" x1="0" class="node-line-1"></line></g><g transform="translate(95, 10)"><text text-anchor="middle" dominant-baseline="middle" alignment-baseline="middle" dy="1em"><tspan dy="1em" x="0">Feb   -   Impossible</tspan><tspan dy="1.1em" x="0">releases   "Spelling</tspan><tspan dy="1.1em" x="0">Bee"   response   to</tspan><tspan dy="1.1em" x="0">CCF   ad</tspan></text></g></g></g><g transform="translate(1500, 709.2624847412109)" class="eventWrapper"><g class="timeline-node section-1"><g><path d="M0 76.01562194824218 v-71.01562194824218 q0,-5 5,-5 h180 q5,0 5,5 v76.01562194824218 H0 Z" class="node-bkg node-undefined" id="node-undefined"></path><line y2="81.01562194824218" x2="190" y1="81.01562194824218" x1="0" class="node-line-1"></line></g><g transform="translate(95, 10)"><text text-anchor="middle" dominant-baseline="middle" alignment-baseline="middle" dy="1em"><tspan dy="1em" x="0">Mar   -   JBS   Releases</tspan><tspan dy="1.1em" x="0">plant-based   meat</tspan><tspan dy="1.1em" x="0">products</tspan></text></g></g></g><g transform="translate(1500, 800.278106689453)" class="eventWrapper"><g class="timeline-node section-1"><g><path d="M0 76.01562194824218 v-71.01562194824218 q0,-5 5,-5 h180 q5,0 5,5 v76.01562194824218 H0 Z" class="node-bkg node-undefined" id="node-undefined"></path><line y2="81.01562194824218" x2="190" y1="81.01562194824218" x1="0" class="node-line-1"></line></g><g transform="translate(95, 10)"><text text-anchor="middle" dominant-baseline="middle" alignment-baseline="middle" dy="1em"><tspan dy="1em" x="0">Apr   -   Cargill   releases</tspan><tspan dy="1.1em" x="0">first   plant-based</tspan><tspan dy="1.1em" x="0">meat   products</tspan></text></g></g></g><g transform="translate(1500, 891.2937286376952)" class="eventWrapper"><g class="timeline-node section-1"><g><path d="M0 93.61562042236328 v-88.61562042236328 q0,-5 5,-5 h180 q5,0 5,5 v93.61562042236328 H0 Z" class="node-bkg node-undefined" id="node-undefined"></path><line y2="98.61562042236328" x2="190" y1="98.61562042236328" x1="0" class="node-line-1"></line></g><g transform="translate(95, 10)"><text text-anchor="middle" dominant-baseline="middle" alignment-baseline="middle" dy="1em"><tspan dy="1em" x="0">jun   -   JBS   subsidiary</tspan><tspan dy="1.1em" x="0">releases   it   first</tspan><tspan dy="1.1em" x="0">plant-based   meat</tspan><tspan dy="1.1em" x="0">product</tspan></text></g></g></g><g transform="translate(1500, 999.9093490600584)" class="eventWrapper"><g class="timeline-node section-1"><g><path d="M0 58.41562347412109 v-53.41562347412109 q0,-5 5,-5 h180 q5,0 5,5 v58.41562347412109 H0 Z" class="node-bkg node-undefined" id="node-undefined"></path><line y2="63.41562347412109" x2="190" y1="63.41562347412109" x1="0" class="node-line-1"></line></g><g transform="translate(95, 10)"><text text-anchor="middle" dominant-baseline="middle" alignment-baseline="middle" dy="1em"><tspan dy="1em" x="0">Aug   -   Beyond   Airs</tspan><tspan dy="1.1em" x="0">First   TV   Commercial</tspan></text></g></g></g><g transform="translate(1700, 218.6156204223633)" class="taskWrapper"><g class="timeline-node section-1"><g><path d="M0 60.815625 v-55.815625 q0,-5 5,-5 h180 q5,0 5,5 v60.815625 H0 Z" class="node-bkg node-undefined" id="node-undefined"></path><line y2="65.815625" x2="190" y1="65.815625" x1="0" class="node-line-1"></line></g><g transform="translate(95, 10)"><text text-anchor="middle" dominant-baseline="middle" alignment-baseline="middle" dy="1em"><tspan dy="1em" x="0">2021</tspan></text></g></g></g><g class="lineWrapper"><line stroke-dasharray="5,5" marker-end="url(#arrowhead)" stroke="black" stroke-width="2" y2="1304.9874588012694" x2="1795" y1="284.4312454223633" x1="1795"></line></g><g transform="translate(1700, 418.6156204223633)" class="eventWrapper"><g class="timeline-node section-1"><g><path d="M0 111.21561889648437 v-106.21561889648437 q0,-5 5,-5 h180 q5,0 5,5 v111.21561889648437 H0 Z" class="node-bkg node-undefined" id="node-undefined"></path><line y2="116.21561889648437" x2="190" y1="116.21561889648437" x1="0" class="node-line-1"></line></g><g transform="translate(95, 10)"><text text-anchor="middle" dominant-baseline="middle" alignment-baseline="middle" dy="1em"><tspan dy="1em" x="0">Feb   -   USCA   begins</tspan><tspan dy="1.1em" x="0">pushing   for   labeling</tspan><tspan dy="1.1em" x="0">regulations   for</tspan><tspan dy="1.1em" x="0">cultured   meat</tspan><tspan dy="1.1em" x="0">products</tspan></text></g></g></g><g transform="translate(1700, 544.8312393188477)" class="eventWrapper"><g class="timeline-node section-1"><g><path d="M0 111.21561889648437 v-106.21561889648437 q0,-5 5,-5 h180 q5,0 5,5 v111.21561889648437 H0 Z" class="node-bkg node-undefined" id="node-undefined"></path><line y2="116.21561889648437" x2="190" y1="116.21561889648437" x1="0" class="node-line-1"></line></g><g transform="translate(95, 10)"><text text-anchor="middle" dominant-baseline="middle" alignment-baseline="middle" dy="1em"><tspan dy="1em" x="0">Sep   -   USDA   denys</tspan><tspan dy="1.1em" x="0">the   USCA   petition</tspan><tspan dy="1.1em" x="0">about   alternative</tspan><tspan dy="1.1em" x="0">meat   labeling</tspan><tspan dy="1.1em" x="0">regulations</tspan></text></g></g></g><g transform="translate(1700, 671.046858215332)" class="eventWrapper"><g class="timeline-node section-1"><g><path d="M0 76.01562194824218 v-71.01562194824218 q0,-5 5,-5 h180 q5,0 5,5 v76.01562194824218 H0 Z" class="node-bkg node-undefined" id="node-undefined"></path><line y2="81.01562194824218" x2="190" y1="81.01562194824218" x1="0" class="node-line-1"></line></g><g transform="translate(95, 10)"><text text-anchor="middle" dominant-baseline="middle" alignment-baseline="middle" dy="1em"><tspan dy="1em" x="0">Nov   -   JBS   acquires</tspan><tspan dy="1.1em" x="0">cultured   meat</tspan><tspan dy="1.1em" x="0">company</tspan></text></g></g></g><g transform="translate(1900, 218.6156204223633)" class="taskWrapper"><g class="timeline-node section-1"><g><path d="M0 60.815625 v-55.815625 q0,-5 5,-5 h180 q5,0 5,5 v60.815625 H0 Z" class="node-bkg node-undefined" id="node-undefined"></path><line y2="65.815625" x2="190" y1="65.815625" x1="0" class="node-line-1"></line></g><g transform="translate(95, 10)"><text text-anchor="middle" dominant-baseline="middle" alignment-baseline="middle" dy="1em"><tspan dy="1em" x="0">2022</tspan></text></g></g></g><g class="lineWrapper"><line stroke-dasharray="5,5" marker-end="url(#arrowhead)" stroke="black" stroke-width="2" y2="1304.9874588012694" x2="1995" y1="284.4312454223633" x1="1995"></line></g><g transform="translate(1900, 418.6156204223633)" class="eventWrapper"><g class="timeline-node section-1"><g><path d="M0 93.61562042236328 v-88.61562042236328 q0,-5 5,-5 h180 q5,0 5,5 v93.61562042236328 H0 Z" class="node-bkg node-undefined" id="node-undefined"></path><line y2="98.61562042236328" x2="190" y1="98.61562042236328" x1="0" class="node-line-1"></line></g><g transform="translate(95, 10)"><text text-anchor="middle" dominant-baseline="middle" alignment-baseline="middle" dy="1em"><tspan dy="1em" x="0">Aug   -   USCA   adds</tspan><tspan dy="1.1em" x="0">plant-based   meat</tspan><tspan dy="1.1em" x="0">products   in   push   for</tspan><tspan dy="1.1em" x="0">labeling   regulations</tspan></text></g></g></g><g transform="translate(1900, 527.2312408447266)" class="eventWrapper"><g class="timeline-node section-1"><g><path d="M0 93.61562042236328 v-88.61562042236328 q0,-5 5,-5 h180 q5,0 5,5 v93.61562042236328 H0 Z" class="node-bkg node-undefined" id="node-undefined"></path><line y2="98.61562042236328" x2="190" y1="98.61562042236328" x1="0" class="node-line-1"></line></g><g transform="translate(95, 10)"><text text-anchor="middle" dominant-baseline="middle" alignment-baseline="middle" dy="1em"><tspan dy="1em" x="0">Oct   -   JBS   abandons</tspan><tspan dy="1.1em" x="0">its   plant-based   meat</tspan><tspan dy="1.1em" x="0">product   line   in   the</tspan><tspan dy="1.1em" x="0">US</tspan></text></g></g></g><g transform="translate(2100, 218.6156204223633)" class="taskWrapper"><g class="timeline-node section-1"><g><path d="M0 60.815625 v-55.815625 q0,-5 5,-5 h180 q5,0 5,5 v60.815625 H0 Z" class="node-bkg node-undefined" id="node-undefined"></path><line y2="65.815625" x2="190" y1="65.815625" x1="0" class="node-line-1"></line></g><g transform="translate(95, 10)"><text text-anchor="middle" dominant-baseline="middle" alignment-baseline="middle" dy="1em"><tspan dy="1em" x="0">2023</tspan></text></g></g></g><g class="lineWrapper"><line stroke-dasharray="5,5" marker-end="url(#arrowhead)" stroke="black" stroke-width="2" y2="1304.9874588012694" x2="2195" y1="284.4312454223633" x1="2195"></line></g><g transform="translate(2100, 418.6156204223633)" class="eventWrapper"><g class="timeline-node section-1"><g><path d="M0 111.21561889648437 v-106.21561889648437 q0,-5 5,-5 h180 q5,0 5,5 v111.21561889648437 H0 Z" class="node-bkg node-undefined" id="node-undefined"></path><line y2="116.21561889648437" x2="190" y1="116.21561889648437" x1="0" class="node-line-1"></line></g><g transform="translate(95, 10)"><text text-anchor="middle" dominant-baseline="middle" alignment-baseline="middle" dy="1em"><tspan dy="1em" x="0">Jun   -   USDA</tspan><tspan dy="1.1em" x="0">approves   the   release</tspan><tspan dy="1.1em" x="0">of   the   first   cultured</tspan><tspan dy="1.1em" x="0">meat   products   from</tspan><tspan dy="1.1em" x="0">two   companies</tspan></text></g></g></g><g transform="translate(2100, 544.8312393188477)" class="eventWrapper"><g class="timeline-node section-1"><g><path d="M0 58.41562347412109 v-53.41562347412109 q0,-5 5,-5 h180 q5,0 5,5 v58.41562347412109 H0 Z" class="node-bkg node-undefined" id="node-undefined"></path><line y2="63.41562347412109" x2="190" y1="63.41562347412109" x1="0" class="node-line-1"></line></g><g transform="translate(95, 10)"><text text-anchor="middle" dominant-baseline="middle" alignment-baseline="middle" dy="1em"><tspan dy="1em" x="0">Sep   -   CCF   makes</tspan><tspan dy="1.1em" x="0">final   blog   post</tspan></text></g></g></g><g transform="translate(2300, 218.6156204223633)" class="taskWrapper"><g class="timeline-node section-1"><g><path d="M0 60.815625 v-55.815625 q0,-5 5,-5 h180 q5,0 5,5 v60.815625 H0 Z" class="node-bkg node-undefined" id="node-undefined"></path><line y2="65.815625" x2="190" y1="65.815625" x1="0" class="node-line-1"></line></g><g transform="translate(95, 10)"><text text-anchor="middle" dominant-baseline="middle" alignment-baseline="middle" dy="1em"><tspan dy="1em" x="0">2024</tspan></text></g></g></g><g class="lineWrapper"><line stroke-dasharray="5,5" marker-end="url(#arrowhead)" stroke="black" stroke-width="2" y2="1304.9874588012694" x2="2395" y1="284.4312454223633" x1="2395"></line></g><g transform="translate(2300, 418.6156204223633)" class="eventWrapper"><g class="timeline-node section-1"><g><path d="M0 93.61562042236328 v-88.61562042236328 q0,-5 5,-5 h180 q5,0 5,5 v93.61562042236328 H0 Z" class="node-bkg node-undefined" id="node-undefined"></path><line y2="98.61562042236328" x2="190" y1="98.61562042236328" x1="0" class="node-line-1"></line></g><g transform="translate(95, 10)"><text text-anchor="middle" dominant-baseline="middle" alignment-baseline="middle" dy="1em"><tspan dy="1em" x="0">Feb   -   Beyond</tspan><tspan dy="1.1em" x="0">announces   release</tspan><tspan dy="1.1em" x="0">of   reformulated</tspan><tspan dy="1.1em" x="0">products</tspan></text></g></g></g><g class="lineWrapper"><line marker-end="url(#arrowhead)" stroke="black" stroke-width="4" y2="334.4312454223633" x2="2540" y1="334.4312454223633" x1="50"></line></g></svg>